/* XPM */
static char * circle_xpm[] = {
"32 32 121 2",
"  	c #FFFFFF",
". 	c #FF2424",
"+ 	c #FF0F0F",
"@ 	c #FF0000",
"# 	c #FF1515",
"$ 	c #FF3535",
"% 	c #FF1414",
"& 	c #FF7A7A",
"* 	c #FFDCDC",
"= 	c #FFF1F1",
"- 	c #FFEAEA",
"; 	c #FFC9C9",
"> 	c #FF7C7C",
", 	c #FF1C1C",
"' 	c #FF6F6F",
") 	c #FF2F2F",
"! 	c #FFD9D9",
"~ 	c #FFF5F5",
"{ 	c #FF6A6A",
"] 	c #FF2B2B",
"^ 	c #FF3636",
"/ 	c #FFF0F0",
"( 	c #FF7474",
"_ 	c #FF1717",
": 	c #FFE5E5",
"< 	c #1AFF1A",
"[ 	c #06FF06",
"} 	c #1BFF1B",
"| 	c #11FF11",
"1 	c #02FD00",
"2 	c #2CFF2C",
"3 	c #FF8B8B",
"4 	c #14FF14",
"5 	c #81FF81",
"6 	c #E3FFE3",
"7 	c #FCFFFC",
"8 	c #FDA4A2",
"9 	c #CCFFCC",
"0 	c #86FF86",
"a 	c #1EFF1E",
"b 	c #FFEDED",
"c 	c #42FF42",
"d 	c #4AFF4A",
"e 	c #EAFFEA",
"f 	c #FFECEC",
"g 	c #FF1010",
"h 	c #F8FFF8",
"i 	c #85FF85",
"j 	c #37FF37",
"k 	c #73FF73",
"l 	c #FDFFFD",
"m 	c #B4FFB4",
"n 	c #19FF19",
"o 	c #FF3E3E",
"p 	c #5DFF5D",
"q 	c #FEFFFE",
"r 	c #FF2323",
"s 	c #92FF92",
"t 	c #FF2E2E",
"u 	c #F7FFF7",
"v 	c #FF0B0B",
"w 	c #30FF30",
"x 	c #FF0C0C",
"y 	c #FFF4F4",
"z 	c #9BFF9B",
"A 	c #FFD8D8",
"B 	c #FF1F1F",
"C 	c #A5FFA5",
"D 	c #FFA0A0",
"E 	c #0EFF0E",
"F 	c #F0FFF0",
"G 	c #FF8585",
"H 	c #F1FFF1",
"I 	c #0FFF0F",
"J 	c #FFF7F7",
"K 	c #38FF38",
"L 	c #FFF2F2",
"M 	c #FF1818",
"N 	c #28FF28",
"O 	c #FF5F5F",
"P 	c #FFFEFE",
"Q 	c #52FF52",
"R 	c #FF5E5E",
"S 	c #FF3B3B",
"T 	c #FF5C5C",
"U 	c #51FB4D",
"V 	c #FFFAFA",
"W 	c #FF6E6E",
"X 	c #3CFF3C",
"Y 	c #34D106",
"Z 	c #FF9393",
"` 	c #FFE8E8",
" .	c #FFF8F8",
"..	c #FFA9A9",
"+.	c #FF3131",
"@.	c #23FF23",
"#.	c #EFFFEF",
"$.	c #FF1212",
"%.	c #FF1A1A",
"&.	c #FF2626",
"*.	c #FF0909",
"=.	c #10FF10",
"-.	c #9DFF9D",
";.	c #95FF95",
">.	c #25FF25",
",.	c #FBFFFB",
"'.	c #FAFFFA",
").	c #7AFF7A",
"!.	c #1DFF1D",
"~.	c #A1FFA1",
"{.	c #A6FFA6",
"].	c #82FF82",
"^.	c #80FF80",
"/.	c #2EFF2E",
"(.	c #A2FFA2",
"_.	c #F6FFF6",
":.	c #EEFFEE",
"<.	c #96FF96",
"[.	c #0AFF0A",
"}.	c #31FF31",
"|.	c #44FF44",
"                                                                ",
"                                                                ",
"                                                                ",
"                                                                ",
"                  . + @ # $                                     ",
"              % & * =   - ; > ,                                 ",
"          ' ) !               ~ { ]                             ",
"          ^ /                     (                             ",
"        _ :                 < [ } | 1 2                         ",
"        3               4 5 6 7     8 9 0 a                     ",
"      + b           c d e           f g   h i }                 ",
"      ]           j k l               _       m n               ",
"      o           p q                 r         s               ",
"      t         a u                   v         l w             ",
"      x y       z                   A B           C             ",
"        D     E F                   G             H I           ",
"        r J   K                   L M               N           ",
"          O P Q                   R                 c           ",
"          S T U               V W $                 X           ",
"              Y Z `        ...+.                    @.          ",
"              E #.$.%.] &.*.                      e =.          ",
"                -.                                ;.            ",
"                >.,.                            '.N             ",
"                  ).                            5               ",
"                  !.~.                        {.!.              ",
"                    a ].,.                ,.^.}                 ",
"                        /.(._.        :.<.N                     ",
"                            [.}.|.|.>.E                         ",
"                                                                ",
"                                                                ",
"                                                                ",
"                                                                "};
